name ./resultDataOpenSim/trcMotMarkerGrf/sub09/grf-04-08.mot
datacolumns 19
datarows 22
range 0.99600000 1.08000000
endheader

                time	     ground_force_vx	     ground_force_vy	     ground_force_vz	     ground_force_px	     ground_force_py	     ground_force_pz	   l_ground_force_vx	   l_ground_force_vy	   l_ground_force_vz	   l_ground_force_px	   l_ground_force_py	   l_ground_force_pz	     ground_torque_x	     ground_torque_y	     ground_torque_z	   l_ground_torque_x	   l_ground_torque_y	   l_ground_torque_z	
          0.99600000	          0.00000000	          0.00000000	          0.00000000	          0.00000000	          0.00000000	          0.00000000	         21.18786825	        474.16872727	          7.64607964	          0.16239584	         -0.07500000	          0.03017255	          0.00000000	          0.00000000	          0.00000000	          0.00000000	         -3.99107854	          0.00000000	
          1.00000000	          0.00000000	          0.00000000	          0.00000000	          0.00000000	          0.00000000	          0.00000000	         24.06192269	        483.49502992	          7.17922202	          0.16279655	         -0.07500000	          0.03042411	          0.00000000	          0.00000000	          0.00000000	          0.00000000	         -4.19539852	          0.00000000	
          1.00400000	          0.00000000	          0.00000000	          0.00000000	          0.00000000	          0.00000000	          0.00000000	         26.92607712	        493.36719366	          6.92303198	          0.16303211	         -0.07500000	          0.03056747	          0.00000000	          0.00000000	          0.00000000	          0.00000000	         -4.36928724	          0.00000000	
          1.00800000	          0.00000000	          0.00000000	          0.00000000	          0.00000000	          0.00000000	          0.00000000	         29.80870105	        504.00298029	          6.90252881	          0.16314580	         -0.07500000	          0.03064297	          0.00000000	          0.00000000	          0.00000000	          0.00000000	         -4.50545012	          0.00000000	
          1.01200000	          0.00000000	          0.00000000	          0.00000000	          0.00000000	          0.00000000	          0.00000000	         32.76571883	        515.52731235	          7.12618755	          0.16321826	         -0.07500000	          0.03070902	          0.00000000	          0.00000000	          0.00000000	          0.00000000	         -4.59991741	          0.00000000	
          1.01600000	          0.00000000	          0.00000000	          0.00000000	          0.00000000	          0.00000000	          0.00000000	         35.84951177	        527.92539593	          7.57514822	          0.16332461	         -0.07500000	          0.03080144	          0.00000000	          0.00000000	          0.00000000	          0.00000000	         -4.65269315	          0.00000000	
          1.02000000	          0.00000000	          0.00000000	          0.00000000	          0.00000000	          0.00000000	          0.00000000	         39.09757229	        541.10160889	          8.20744628	          0.16349489	         -0.07500000	          0.03092260	          0.00000000	          0.00000000	          0.00000000	          0.00000000	         -4.66746225	          0.00000000	
          1.02400000	          0.00000000	          0.00000000	          0.00000000	          0.00000000	          0.00000000	          0.00000000	         42.55505432	        554.93605517	          8.98483385	          0.16368490	         -0.07500000	          0.03105569	          0.00000000	          0.00000000	          0.00000000	          0.00000000	         -4.65052932	          0.00000000	
          1.02800000	          0.00000000	          0.00000000	          0.00000000	          0.00000000	          0.00000000	          0.00000000	         46.29762265	        569.25695649	          9.89334173	          0.16383285	         -0.07500000	          0.03116795	          0.00000000	          0.00000000	          0.00000000	          0.00000000	         -4.60946286	          0.00000000	
          1.03200000	          0.00000000	          0.00000000	          0.00000000	          0.00000000	          0.00000000	          0.00000000	         50.41164745	        583.80531009	         10.93133168	          0.16391262	         -0.07500000	          0.03123654	          0.00000000	          0.00000000	          0.00000000	          0.00000000	         -4.55185832	          0.00000000	
          1.03600000	          0.00000000	          0.00000000	          0.00000000	          0.00000000	          0.00000000	          0.00000000	         54.94774203	        598.27730168	         12.08451286	          0.16395133	         -0.07500000	          0.03126714	          0.00000000	          0.00000000	          0.00000000	          0.00000000	         -4.48437461	          0.00000000	
          1.04000000	          0.00000000	          0.00000000	          0.00000000	          0.00000000	          0.00000000	          0.00000000	         59.89556745	        612.43410900	         13.32232640	          0.16400109	         -0.07500000	          0.03127985	          0.00000000	          0.00000000	          0.00000000	          0.00000000	         -4.41208941	          0.00000000	
          1.04400000	          0.00000000	          0.00000000	          0.00000000	          0.00000000	          0.00000000	          0.00000000	         65.19628832	        626.19057390	         14.61170679	          0.16409108	         -0.07500000	          0.03128987	          0.00000000	          0.00000000	          0.00000000	          0.00000000	         -4.33827578	          0.00000000	
          1.04800000	          0.00000000	          0.00000000	          0.00000000	          0.00000000	          0.00000000	          0.00000000	         70.77278268	        639.59202766	         15.91694992	          0.16421639	         -0.07500000	          0.03130693	          0.00000000	          0.00000000	          0.00000000	          0.00000000	         -4.26463502	          0.00000000	
          1.05200000	          0.00000000	          0.00000000	          0.00000000	          0.00000000	          0.00000000	          0.00000000	         76.55093206	        652.71220748	         17.18747973	          0.16435899	         -0.07500000	          0.03134468	          0.00000000	          0.00000000	          0.00000000	          0.00000000	         -4.19180308	          0.00000000	
          1.05600000	          0.00000000	          0.00000000	          0.00000000	          0.00000000	          0.00000000	          0.00000000	         82.46062403	        665.56774703	         18.36634115	          0.16451288	         -0.07500000	          0.03142956	          0.00000000	          0.00000000	          0.00000000	          0.00000000	         -4.11987018	          0.00000000	
          1.06000000	          0.00000000	          0.00000000	          0.00000000	          0.00000000	          0.00000000	          0.00000000	         88.43028783	        678.08474810	         19.41688637	          0.16469801	         -0.07500000	          0.03159144	          0.00000000	          0.00000000	          0.00000000	          0.00000000	         -4.04880461	          0.00000000	
          1.06400000	          0.00000000	          0.00000000	          0.00000000	          0.00000000	          0.00000000	          0.00000000	         94.39206744	        690.13250294	         20.32760127	          0.16494365	         -0.07500000	          0.03183803	          0.00000000	          0.00000000	          0.00000000	          0.00000000	         -3.97880638	          0.00000000	
          1.06800000	          0.00000000	          0.00000000	          0.00000000	          0.00000000	          0.00000000	          0.00000000	        100.28930562	        701.60606914	         21.08781891	          0.16525387	         -0.07500000	          0.03214252	          0.00000000	          0.00000000	          0.00000000	          0.00000000	         -3.91056367	          0.00000000	
          1.07200000	          0.00000000	          0.00000000	          0.00000000	          0.00000000	          0.00000000	          0.00000000	        106.07690215	        712.46965410	         21.67014213	          0.16559713	         -0.07500000	          0.03245766	          0.00000000	          0.00000000	          0.00000000	          0.00000000	         -3.84527864	          0.00000000	
          1.07600000	          0.00000000	          0.00000000	          0.00000000	          0.00000000	          0.00000000	          0.00000000	        111.72179698	        722.69646172	         22.03906201	          0.16591747	         -0.07500000	          0.03274128	          0.00000000	          0.00000000	          0.00000000	          0.00000000	         -3.78437157	          0.00000000	
          1.08000000	          0.00000000	          0.00000000	          0.00000000	          0.00000000	          0.00000000	          0.00000000	        117.20462150	        732.15099268	         22.17142906	          0.16615774	         -0.07500000	          0.03296931	          0.00000000	          0.00000000	          0.00000000	          0.00000000	         -3.72895873	          0.00000000	
